<svg id="SvgjsSvg1061" width="288" height="288" xmlns="http://www.w3.org/2000/svg" version="1.1" xmlns:xlink="http://www.w3.org/1999/xlink" xmlns:svgjs="http://svgjs.com/svgjs"><g id="SvgjsG1070" transform="matrix(0.9300000071525574,0,0,0.9300000071525574,10.079998970031738,10.079998970031738)" fill="#26d7fe"><circle id="SvgjsCircle1071" r="144" cx="144" cy="144"></circle><rect id="SvgjsRect1072" width="173" height="173" x="115" y="115" rx="29" ry="29"></rect></g><defs id="SvgjsDefs1062"></defs><g id="SvgjsG1063" transform="matrix(0.8300000429153442,0,0,0.8300000429153442,24.47999382019043,24.47999382019043)"><svg xmlns="http://www.w3.org/2000/svg" viewBox="0 0 100 100" width="288" height="288"><path d="M5.091 53.51C5.063 52.898 5 52.3 5 51.684 5 25.9 25.146 5 50 5s45 20.9 45 46.684c0 .616-.068 1.215-.088 1.826C93.977 28.583 74.26 8.656 50 8.656c-24.261 0-43.978 19.927-44.909 44.854zM50 25.622c15.164 0 27.527 12.291 28.425 27.788.034-.6.088-1.191.088-1.796 0-16.338-12.764-29.579-28.513-29.579S21.487 35.276 21.487 51.614c0 .604.054 1.196.087 1.796C22.473 37.913 34.835 25.622 50 25.622zm0 8.652c-5.158 0-9.343 4.342-9.343 9.692 0 5.35 4.186 9.691 9.343 9.691 5.156 0 9.342-4.342 9.342-9.691 0-5.35-4.186-9.692-9.342-9.692zm0 20.193c-7.513 0-13.605.416-13.605 14.685C36.395 83.426 42.487 95 50 95s13.605-11.574 13.605-25.849c0-14.268-6.092-14.684-13.605-14.684z" fill="#85203b" class="color000 svgShape"></path></svg></g></svg>